<svg xmlns="http://www.w3.org/2000/svg" viewBox="0 0 500 200">
    <defs>
        <clipPath id="corner">
            <rect x="0" y="0" width="500" height="200" rx="15" />
        </clipPath>
        <linearGradient id="gradient-1">
            <stop offset="10%" stop-color="#60d8e3" />
            <stop offset="90%" stop-color="#90fdaf" />
        </linearGradient>
        <linearGradient id="gradient-2">
            <stop offset="10%" stop-color="#aadf7b" />
            <stop offset="90%" stop-color="#ebcb8e" />
        </linearGradient>
        <filter id="blur">
            <feGaussianBlur stdDeviation="5" />
        </filter>
    </defs>

    <g clip-path="url(#corner)">
        <rect width="500" height="200" fill="#faffee" />

        <circle id="mycircle" cx="0" cy="0" r="160" fill="url(#gradient-1)">
            <animateTransform attributeName="transform" attributeType="XML" type="rotate" from="0 0 0" to="360 0 0"
                dur="5s" repeatCount="indefinite" />
        </circle>

        <circle id="mycircle" cx="500" cy="280" r="200" fill="url(#gradient-2)" filter="url(#blur)">
            <animateTransform attributeName="transform" attributeType="XML" type="rotate" from="0 500 280"
                to="360 500 280" dur="5s" repeatCount="indefinite" />
        </circle>
    </g>

    <svg x="70" width="180" viewBox="0 0 1301 572">
        <path fill-rule="evenodd" fill="#000"
            d="M1297.530,402.914 L1256.686,402.914 C1258.235,396.164 1259.65,390.519 1259.177,385.979 C1259.286,381.442 1258.733,377.818 1257.517,375.104 C1256.297,372.393 1254.445,370.456 1251.955,369.293 C1249.464,368.131 1246.393,367.550 1242.740,367.550 C1237.427,367.550 1231.974,369.737 1226.386,374.108 C1220.796,378.482 1215.483,384.236 1210.447,391.375 C1205.409,398.514 1200.901,406.707 1196.916,415.948 C1192.931,425.191 1189.943,434.683 1187.950,444.422 L1175.830,506.19 L1134.323,506.19 L1152.254,415.865 C1152.918,412.435 1153.582,408.671 1154.246,404.575 C1154.910,400.481 1155.600,395.471 1156.322,389.549 C1157.40,383.629 1157.842,376.461 1158.729,368.48 C1159.614,359.638 1160.664,349.398 1161.884,337.333 L1194.757,337.333 L1193.97,370.372 C1195.530,365.947 1198.659,361.547 1202.478,357.173 C1206.296,352.802 1210.696,348.872 1215.677,345.385 C1220.658,341.898 1226.274,339.76 1232.529,336.918 C1238.781,334.759 1245.617,333.680 1253.34,333.680 C1262.663,333.680 1270.882,335.231 1277.689,338.329 C1284.496,341.429 1289.781,345.912 1293.545,351.777 C1297.307,357.645 1299.548,364.868 1300.269,373.444 C1300.988,382.23 1300.75,391.847 1297.530,402.914 ZM1100.121,158.159 L1082.411,158.159 L1098.18,80.457 C1098.829,76.400 1099.382,73.116 1099.678,70.606 C1099.972,68.99 1100.65,66.143 1099.955,64.740 C1099.844,63.339 1099.548,62.379 1099.69,61.862 C1098.588,61.347 1097.943,61.87 1097.132,61.87 C1095.655,61.87 1093.939,61.936 1091.985,63.633 C1090.29,65.331 1087.981,67.581 1085.842,70.385 C1083.701,73.190 1081.562,76.417 1079.422,80.70 C1077.281,83.723 1075.272,87.524 1073.390,91.471 C1071.508,95.419 1069.865,99.329 1068.464,103.203 C1067.62,107.77 1066.66,110.675 1065.476,113.995 L1056.621,158.159 L1038.911,158.159 L1054.518,80.457 C1055.329,76.400 1055.882,73.116 1056.178,70.606 C1056.472,68.99 1056.566,66.143 1056.455,64.740 C1056.344,63.339 1056.48,62.379 1055.569,61.862 C1055.89,61.347 1054.444,61.87 1053.632,61.87 C1052.155,61.87 1050.440,61.936 1048.485,63.633 C1046.529,65.331 1044.482,67.581 1042.342,70.385 C1040.201,73.190 1038.43,76.417 1035.867,80.70 C1033.690,83.723 1031.678,87.524 1029.835,91.471 C1027.989,95.419 1026.366,99.329 1024.965,103.203 C1023.562,107.77 1022.530,110.675 1021.865,113.995 L1013.11,158.159 L995.411,158.159 L1007.366,98.57 C1007.660,96.656 1007.974,94.810 1008.306,92.522 C1008.638,90.236 1009.43,87.154 1009.524,83.280 C1010.3,79.406 1010.575,74.536 1011.240,68.669 C1011.904,62.803 1012.678,55.591 1013.564,47.30 L1030.56,47.30 L1027.289,72.709 C1029.354,68.946 1031.495,65.404 1033.709,62.83 C1035.923,58.763 1038.228,55.830 1040.627,53.284 C1043.24,50.738 1045.589,48.728 1048.319,47.252 C1051.49,45.776 1053.964,45.38 1057.64,45.38 C1060.827,45.38 1063.944,45.776 1066.417,47.252 C1068.888,48.728 1070.695,50.721 1071.840,53.229 C1072.983,55.738 1073.482,58.671 1073.335,62.28 C1073.186,65.387 1072.375,68.946 1070.899,72.709 C1072.964,68.946 1075.87,65.404 1077.264,62.83 C1079.440,58.763 1081.728,55.830 1084.126,53.284 C1086.524,50.738 1089.88,48.728 1091.819,47.252 C1094.548,45.776 1097.464,45.38 1100.563,45.38 C1107.941,45.38 1112.905,47.824 1115.451,53.395 C1117.996,58.967 1118.88,67.656 1115.727,79.461 L1100.121,158.159 ZM960.767,43.433 C958.553,47.456 955.767,51.292 952.410,54.944 C949.51,58.597 945.66,61.826 940.456,64.629 C935.843,67.434 930.605,69.665 924.738,71.326 C918.872,72.986 912.359,73.816 905.202,73.816 L905.202,58.652 C908.965,58.801 912.912,58.431 917.45,57.545 C921.177,56.660 924.941,55.259 928.335,53.339 C931.729,51.421 934.534,49.5 936.748,46.89 C938.961,43.175 940.68,39.725 940.68,35.740 C940.68,33.822 939.753,32.181 939.127,30.815 C938.500,29.450 937.835,28.141 937.135,26.885 C936.433,25.631 935.769,24.267 935.143,22.790 C934.515,21.315 934.202,19.507 934.202,17.366 C934.202,14.637 934.700,12.202 935.696,10.61 C936.692,7.922 937.965,6.151 939.515,4.748 C941.64,3.347 942.816,2.277 944.772,1.538 C946.727,0.801 948.664,0.431 950.583,0.431 C955.454,0.431 959.456,2.36 962.593,5.246 C965.728,8.456 967.297,13.271 967.297,19.691 C967.297,23.381 966.761,27.255 965.692,31.313 C964.622,35.372 962.980,39.412 960.767,43.433 ZM924.295,392.122 C924.295,409.169 922.26,424.830 917.488,439.109 C912.948,453.387 906.364,465.702 897.731,476.50 C889.97,486.401 878.526,494.480 866.19,500.291 C853.510,506.102 839.288,509.7 823.350,509.7 C817.372,509.7 812.31,508.730 807.328,508.177 C802.622,507.622 798.554,507.15 795.125,506.351 L794.460,509.339 L781.842,571.932 L741.331,571.932 L772.711,415.865 C773.375,412.435 774.10,408.671 774.620,404.575 C775.227,400.481 775.891,395.471 776.612,389.549 C777.331,383.629 778.132,376.461 779.20,368.48 C779.904,359.638 780.955,349.398 782.174,337.333 L815.214,337.333 L813.720,368.48 C816.265,364.175 819.502,360.219 823.433,356.177 C827.360,352.138 831.900,348.457 837.47,345.136 C842.194,341.815 847.893,339.76 854.148,336.918 C860.400,334.759 867.124,333.680 874.321,333.680 C890.812,333.680 903.264,338.772 911.677,348.955 C920.88,359.140 924.295,373.527 924.295,392.122 ZM877.558,374.523 C874.513,369.874 869.892,367.550 863.695,367.550 C860.374,367.550 856.830,368.492 853.69,370.372 C849.305,372.256 845.569,374.829 841.862,378.93 C838.152,381.359 834.557,385.178 831.70,389.549 C827.583,393.923 824.400,398.572 821.523,403.495 C818.644,408.422 816.153,413.486 814.52,418.687 C811.948,423.891 810.399,428.981 809.403,433.962 L801.600,473.643 C803.924,474.530 807.105,475.386 811.146,476.216 C815.186,477.46 819.585,477.461 824.346,477.461 C832.204,477.461 839.94,476.50 845.16,473.228 C850.936,470.405 856.57,466.698 860.374,462.104 C864.691,457.512 868.232,452.282 871.0,446.414 C873.765,440.548 875.981,434.571 877.641,428.483 C879.301,422.397 880.464,416.420 881.128,410.552 C881.792,404.686 882.124,399.428 882.124,394.779 C882.124,385.925 880.601,379.172 877.558,374.523 ZM834.31,30.95 L811.894,141.335 L845.210,141.335 L841.779,158.159 L755.222,158.159 L758.543,141.335 L791.859,141.335 L814.107,30.95 L780.791,30.95 L784.222,13.492 L870.779,13.492 L867.347,30.95 L834.31,30.95 ZM720.411,438.860 C719.747,442.901 719.55,447.882 718.336,453.802 C717.615,459.725 716.813,466.893 715.928,475.303 C715.41,483.716 714.45,493.955 712.940,506.19 L679.900,506.19 L681.228,475.469 C678.681,479.345 675.472,483.301 671.599,487.340 C667.723,491.382 663.214,495.61 658.67,498.381 C652.920,501.702 647.218,504.441 640.966,506.600 C634.712,508.758 627.933,509.837 620.628,509.837 C604.245,509.837 591.821,504.747 583.354,494.563 C574.886,484.380 570.653,469.936 570.653,451.229 C570.653,434.294 572.920,418.661 577.460,404.326 C581.997,389.993 588.584,377.652 597.217,367.301 C605.851,356.953 616.448,348.872 629.12,343.61 C641.573,337.250 655.826,334.344 671.765,334.344 C680.287,334.344 687.895,334.925 694.594,336.87 C701.289,337.250 707.129,338.606 712.110,340.155 L740.999,334.12 L722.404,427.487 C721.740,431.30 721.75,434.820 720.411,438.860 ZM682.640,366.886 C678.930,366.222 674.974,365.890 670.768,365.890 C662.908,365.890 656.18,367.301 650.98,370.123 C644.175,372.946 639.57,376.656 634.740,381.247 C630.423,385.842 626.854,391.72 624.31,396.937 C621.209,402.805 618.967,408.782 617.307,414.868 C615.647,420.957 614.484,426.963 613.820,432.883 C613.156,438.805 612.824,444.35 612.824,448.572 C612.824,457.429 614.344,464.179 617.390,468.828 C620.433,473.477 625.53,475.801 631.253,475.801 C636.343,475.801 641.768,473.754 647.524,469.658 C653.278,465.564 658.757,460.306 663.961,453.885 C669.163,447.467 673.728,440.328 677.659,432.468 C681.586,424.610 684.271,416.918 685.711,409.389 L693.515,369.708 C689.971,368.492 686.347,367.550 682.640,366.886 ZM549.14,115.766 L568.494,1.759 L591.849,1.759 L565.949,115.766 L549.14,115.766 ZM557.536,132.93 C559.233,132.867 560.708,133.902 561.964,135.192 C563.218,136.484 564.195,137.997 564.897,139.730 C565.597,141.465 565.949,143.291 565.949,145.209 C565.949,147.350 565.542,149.323 564.731,151.131 C563.918,152.940 562.830,154.507 561.466,155.835 C560.99,157.163 558.514,158.215 556.706,158.989 C554.897,159.764 552.998,160.152 551.6,160.152 C548.865,160.152 546.928,159.764 545.195,158.989 C543.460,158.215 541.966,157.201 540.712,155.945 C539.456,154.692 538.479,153.216 537.779,151.518 C537.77,149.821 536.727,148.14 536.727,146.94 C536.727,143.955 537.132,141.963 537.945,140.117 C538.756,138.274 539.863,136.669 541.266,135.302 C542.666,133.938 544.290,132.867 546.136,132.93 C547.979,131.318 549.899,130.930 551.891,130.930 C553.956,130.930 555.838,131.318 557.536,132.93 ZM550.729,377.512 C550.729,385.813 549.372,393.313 546.661,400.9 C543.948,406.707 540.129,412.601 535.205,417.691 C530.279,422.783 524.356,427.100 517.440,430.641 C510.522,434.185 502.801,437.7 494.279,439.109 L537.779,506.19 L488.800,506.19 L440.984,421.11 C453.934,419.351 464.780,417.304 473.525,414.868 C482.268,412.435 489.353,409.667 494.777,406.567 C500.199,403.469 504.75,399.983 506.399,396.107 C508.724,392.234 509.886,387.972 509.886,383.323 C509.886,376.793 508.143,372.199 504.656,369.542 C501.169,366.886 496.326,365.558 490.128,365.558 C484.815,365.558 479.225,367.496 473.359,371.369 C467.491,375.244 461.986,380.168 456.840,386.145 C451.693,392.122 447.236,398.764 443.474,406.69 C439.710,413.374 437.165,420.404 435.837,427.155 L420.230,506.19 L379.719,506.19 L426.539,271.419 L467.50,271.419 L455.594,329.197 L443.640,364.229 C446.629,359.472 450.141,355.209 454.183,351.445 C458.222,347.684 462.651,344.472 467.465,341.815 C472.280,339.159 477.427,337.141 482.906,335.755 C488.385,334.373 494.2,333.680 499.758,333.680 C507.172,333.680 514.8,334.650 520.263,336.586 C526.515,338.523 531.911,341.346 536.451,345.53 C540.988,348.763 544.503,353.329 546.994,358.750 C549.484,364.175 550.729,370.430 550.729,377.512 ZM477.787,112.667 C477.455,114.955 477.67,118.35 476.625,121.909 C476.182,125.783 475.629,130.654 474.964,136.520 C474.300,142.386 473.525,149.600 472.640,158.159 L454.487,158.159 L457.255,132.591 C452.163,141.446 445.982,148.253 438.715,153.12 C431.446,157.772 423.568,160.152 415.83,160.152 C409.770,160.152 405.139,159.266 401.192,157.495 C397.244,155.724 393.978,153.197 391.396,149.913 C388.812,146.631 386.894,142.701 385.641,138.125 C384.385,133.551 383.759,128.459 383.759,122.850 C383.759,112.224 385.142,102.245 387.910,92.910 C390.677,83.576 394.753,75.404 400.140,68.393 C405.526,61.383 412.186,55.849 420.119,51.790 C428.51,47.732 437.182,45.702 447.514,45.702 C452.310,45.702 456.884,46.17 461.239,46.643 C465.592,47.271 469.762,48.175 473.747,49.355 L491.235,45.38 L478.728,107.133 C478.432,108.535 478.119,110.381 477.787,112.667 ZM456.978,62.692 C453.325,61.845 449.949,61.419 446.850,61.419 C440.799,61.419 435.522,62.454 431.22,64.519 C426.520,66.585 422.646,69.278 419.400,72.599 C416.152,75.919 413.495,79.702 411.430,83.944 C409.364,88.188 407.722,92.522 406.505,96.950 C405.287,101.377 404.438,105.694 403.959,109.900 C403.478,114.106 403.240,117.797 403.240,120.969 C403.240,127.980 404.457,133.476 406.892,137.461 C409.327,141.446 413.274,143.438 418.736,143.438 C421.908,143.438 425.81,142.701 428.255,141.224 C431.427,139.749 434.526,137.720 437.552,135.136 C440.577,132.554 443.436,129.510 446.131,126.5 C448.823,122.501 451.295,118.738 453.547,114.715 C455.797,110.694 457.734,106.488 459.358,102.97 C460.980,97.707 462.235,93.335 463.121,88.980 L467.659,66.179 C464.190,64.704 460.631,63.541 456.978,62.692 ZM346.513,438.860 C345.849,442.901 345.156,447.882 344.438,453.802 C343.716,459.725 342.915,466.893 342.30,475.303 C341.143,483.716 340.147,493.955 339.42,506.19 L306.2,506.19 L307.330,475.469 C304.782,479.345 301.573,483.301 297.700,487.340 C293.825,491.382 289.316,495.61 284.169,498.381 C279.22,501.702 273.320,504.441 267.68,506.600 C260.813,508.758 254.35,509.837 246.729,509.837 C230.347,509.837 217.923,504.747 209.456,494.563 C200.988,484.380 196.754,469.936 196.754,451.229 C196.754,434.294 199.22,418.661 203.562,404.326 C208.99,389.993 214.686,377.652 223.319,367.301 C231.953,356.953 242.550,348.872 255.114,343.61 C267.675,337.250 281.928,334.344 297.866,334.344 C306.388,334.344 313.997,334.925 320.695,336.87 C327.391,337.250 333.231,338.606 338.211,340.155 L367.101,334.12 L348.505,427.487 C347.841,431.30 347.177,434.820 346.513,438.860 ZM308.741,366.886 C305.32,366.222 301.75,365.890 296.870,365.890 C289.10,365.890 282.119,367.301 276.199,370.123 C270.277,372.946 265.159,376.656 260.842,381.247 C256.525,385.842 252.955,391.72 250.133,396.937 C247.310,402.805 245.69,408.782 243.409,414.868 C241.748,420.957 240.586,426.963 239.922,432.883 C239.258,438.805 238.926,444.35 238.926,448.572 C238.926,457.429 240.446,464.179 243.492,468.828 C246.535,473.477 251.155,475.801 257.355,475.801 C262.445,475.801 267.869,473.754 273.626,469.658 C279.380,465.564 284.859,460.306 290.63,453.885 C295.264,447.467 299.830,440.328 303.760,432.468 C307.688,424.610 310.373,416.918 311.813,409.389 L319.616,369.708 C316.72,368.492 312.448,367.550 308.741,366.886 ZM355.866,88.39 C353.61,94.940 349.463,102.263 345.74,110.11 C340.683,117.759 335.168,126.392 328.526,135.911 C322.32,145.209 316.92,153.344 310.706,160.318 C305.319,167.291 300.319,173.323 295.708,178.415 C291.95,183.506 286.779,187.693 282.758,190.978 C278.735,194.260 274.844,196.899 271.80,198.892 C267.317,200.884 263.590,202.268 259.901,203.42 C256.210,203.817 252.411,204.205 248.500,204.205 C246.582,204.205 244.775,204.149 243.77,204.39 C241.380,203.928 239.424,203.762 237.210,203.541 L237.210,186.52 C239.203,186.421 241.269,186.697 243.409,186.882 C245.550,187.66 247.689,187.159 249.828,187.159 C253.370,187.159 256.708,186.642 259.846,185.609 C262.981,184.575 266.117,182.898 269.254,180.573 C272.389,178.249 275.599,175.241 278.884,171.552 C282.166,167.862 285.727,163.398 289.565,158.159 L267.96,47.30 L287.905,47.30 L302.404,120.526 L305.172,139.564 C310.557,131.816 315.225,124.715 319.173,118.257 C323.120,111.801 326.515,105.843 329.357,100.381 C332.196,94.921 334.521,89.848 336.330,85.162 C338.137,80.476 339.612,76.13 340.757,71.769 C341.900,67.526 342.767,63.394 343.358,59.372 C343.948,55.351 344.427,51.236 344.797,47.30 L365.938,47.30 C365.53,54.263 363.853,61.181 362.341,67.784 C360.828,74.389 358.669,81.141 355.866,88.39 ZM214.21,157.772 C208.376,159.358 202.344,160.152 195.924,160.152 C190.684,160.152 186.295,159.413 182.753,157.938 C179.211,156.463 176.499,154.119 174.617,150.909 C172.735,147.699 171.684,143.587 171.463,138.568 C171.241,133.551 171.831,127.463 173.234,120.304 L180.760,83.114 C181.646,78.908 182.69,75.385 182.33,72.543 C181.995,69.704 181.608,67.434 180.871,65.736 C180.132,64.40 179.45,62.841 177.606,62.139 C176.167,61.438 174.487,61.87 172.569,61.87 C167.551,61.87 162.608,62.66 157.737,64.20 C152.867,65.977 147.923,68.356 142.906,71.160 L142.906,54.114 C147.997,51.311 153.365,49.97 159.10,47.473 C164.655,45.851 170.688,45.38 177.108,45.38 C182.346,45.38 186.737,45.776 190.279,47.252 C193.821,48.728 196.533,51.70 198.415,54.280 C200.296,57.490 201.348,61.604 201.569,66.622 C201.791,71.641 201.199,77.728 199.798,84.885 L192.272,122.75 C191.459,126.356 191.54,129.898 191.54,132.701 C191.54,135.507 191.441,137.757 192.216,139.453 C192.991,141.152 194.79,142.350 195.482,143.51 C196.882,143.753 198.543,144.102 200.462,144.102 C205.480,144.102 210.424,143.125 215.294,141.169 C220.165,139.215 225.107,136.871 230.126,134.140 L230.126,151.186 C225.35,153.991 219.666,156.186 214.21,157.772 ZM210.147,26.221 C208.709,27.624 207.29,28.731 205.111,29.542 C203.191,30.355 201.127,30.759 198.913,30.759 C196.772,30.759 194.798,30.372 192.991,29.597 C191.182,28.822 189.651,27.790 188.398,26.498 C187.142,25.208 186.165,23.675 185.464,21.904 C184.762,20.133 184.413,18.252 184.413,16.259 C184.413,13.973 184.818,11.870 185.630,9.950 C186.442,8.32 187.567,6.372 189.6,4.969 C190.445,3.568 192.123,2.462 194.43,1.649 C195.961,0.838 198.27,0.431 200.241,0.431 C202.380,0.431 204.336,0.819 206.107,1.593 C207.878,2.368 209.409,3.402 210.701,4.693 C211.991,5.985 212.987,7.515 213.689,9.286 C214.390,11.57 214.741,12.939 214.741,14.931 C214.741,17.219 214.334,19.322 213.523,21.240 C212.711,23.160 211.586,24.820 210.147,26.221 ZM81.32,158.159 L94.425,91.747 L33.658,91.747 L20.265,158.159 L0.563,158.159 L29.563,13.492 L49.376,13.492 L37.89,74.702 L97.856,74.702 L110.32,13.492 L129.845,13.492 L100.734,158.159 L81.32,158.159 ZM93.152,271.419 L81.696,329.197 L69.742,364.229 C72.730,359.472 76.271,355.209 80.368,351.445 C84.461,347.684 88.944,344.472 93.816,341.815 C98.685,339.159 103.804,337.141 109.174,335.755 C114.541,334.373 119.992,333.680 125.528,333.680 C141.908,333.680 154.334,338.772 162.801,348.955 C171.269,359.140 175.503,373.527 175.503,392.122 C175.503,409.169 173.233,424.830 168.695,439.109 C164.156,453.387 157.571,465.702 148.938,476.50 C140.304,486.401 129.733,494.480 117.226,500.291 C104.717,506.102 90.496,509.7 74.557,509.7 C67.360,509.7 60.719,508.758 54.633,508.260 C48.545,507.762 42.762,507.69 37.283,506.185 C31.804,505.300 26.600,504.249 21.676,503.30 C16.750,501.813 11.907,500.431 7.149,498.879 L52.641,271.419 L93.152,271.419 ZM63.599,476.465 C67.360,477.129 71.345,477.461 75.553,477.461 C83.411,477.461 90.301,476.50 96.224,473.228 C102.144,470.405 107.236,466.698 111.498,462.104 C115.758,457.512 119.302,452.282 122.124,446.414 C124.947,440.548 127.188,434.571 128.848,428.483 C130.509,422.397 131.671,416.420 132.335,410.552 C132.999,404.686 133.331,399.428 133.331,394.779 C133.331,385.925 131.808,379.172 128.765,374.523 C125.720,369.874 121.99,367.550 114.902,367.550 C111.470,367.550 107.900,368.492 104.193,370.372 C100.483,372.256 96.776,374.829 93.69,378.93 C89.359,381.359 85.764,385.178 82.277,389.549 C78.790,393.923 75.579,398.572 72.647,403.495 C69.713,408.422 67.194,413.486 65.93,418.687 C62.989,423.891 61.495,428.981 60.610,433.962 L52.641,473.643 C56.182,474.862 59.835,475.801 63.599,476.465 ZM960.988,337.333 L1006.148,337.333 L1014.948,294.165 L1058.613,283.373 L1047.655,337.333 L1113.237,337.333 L1107.94,368.878 L1041.512,368.878 L1026.570,443.93 C1025.462,448.738 1024.935,453.693 1024.992,457.953 C1025.47,462.215 1025.877,465.673 1027.483,468.330 C1029.86,470.986 1031.493,473.62 1034.705,474.556 C1037.914,476.50 1042.119,476.797 1047.323,476.797 C1053.521,476.797 1059.664,476.245 1065.753,475.137 C1071.839,474.32 1077.707,472.813 1083.352,471.484 L1083.352,503.694 C1075.714,505.578 1068.103,507.69 1060.523,508.177 C1052.940,509.282 1045.829,509.837 1039.188,509.837 C1028.118,509.837 1018.626,508.618 1010.714,506.185 C1002.799,503.751 996.518,499.875 991.869,494.563 C987.221,489.250 984.315,482.333 983.153,473.809 C981.991,465.287 982.626,454.939 985.62,442.761 L1000.5,368.878 L954.845,368.878 L960.988,337.333 Z" />
    </svg>

    <svg x="330" width="100" viewBox="0 0 100 100">
        <clipPath id="circle-clip">
            <circle id="circle" cx="50" cy="50" r="50" />
        </clipPath>
        <image href="data:image/png; base64,{{AVATAR_BASE64}}" width="100" clip-path="url(#circle-clip)" />
    </svg>
</svg>