<svg xmlns="http://www.w3.org/2000/svg" viewBox="0 0 500 200">
    <defs>
        <clipPath id="corner">
            <rect x="0" y="0" width="500" height="200" rx="10" />
        </clipPath>
        <linearGradient id="gradient-1">
            <stop offset="10%" stop-color="#60d8e3" />
            <stop offset="90%" stop-color="#90fdaf" />
        </linearGradient>
        <linearGradient id="gradient-2">
            <stop offset="10%" stop-color="#aadf7b" />
            <stop offset="90%" stop-color="#ebcb8e" />
        </linearGradient>
        <filter id="blur">
            <feGaussianBlur stdDeviation="5" />
        </filter>
    </defs>

    <g clip-path="url(#corner)">
        <rect width="500" height="200" fill="#faffee" />

        <circle cx="0" cy="0" r="160" fill="url(#gradient-1)">
            <animateTransform attributeName="transform" attributeType="XML" type="rotate" from="0 0 0" to="360 0 0"
                dur="5s" repeatCount="indefinite" />
        </circle>

        <circle cx="500" cy="280" r="200" fill="url(#gradient-2)" filter="url(#blur)">
            <animateTransform attributeName="transform" attributeType="XML" type="rotate" from="0 500 280"
                to="360 500 280" dur="5s" repeatCount="indefinite" />
        </circle>
    </g>

    <svg xmlns="http://www.w3.org/2000/svg" height="20" x="-110" y="60" viewBox="0 0 544 91">
        <path fill-rule="evenodd" fill="rgb(0,0,0)"
            d="M542.834,35.283 L535.949,70.000 L528.137,70.000 L535.021,35.723 C535.379,33.933 535.623,32.484 535.754,31.377 C535.884,30.271 535.925,29.408 535.876,28.789 C535.827,28.171 535.697,27.748 535.485,27.520 C535.273,27.292 534.989,27.178 534.631,27.178 C533.979,27.178 533.222,27.552 532.360,28.301 C531.497,29.050 530.594,30.043 529.650,31.279 C528.706,32.517 527.762,33.940 526.818,35.552 C525.874,37.163 524.987,38.840 524.157,40.581 C523.327,42.323 522.602,44.048 521.984,45.757 C521.366,47.466 520.926,49.053 520.666,50.518 L516.760,70.000 L508.947,70.000 L515.832,35.723 C516.190,33.933 516.434,32.484 516.564,31.377 C516.694,30.271 516.735,29.408 516.687,28.789 C516.638,28.171 516.507,27.748 516.296,27.520 C516.084,27.292 515.799,27.178 515.441,27.178 C514.790,27.178 514.033,27.552 513.171,28.301 C512.308,29.050 511.405,30.043 510.461,31.279 C509.516,32.517 508.564,33.940 507.604,35.552 C506.644,37.163 505.757,38.840 504.943,40.581 C504.129,42.323 503.413,44.048 502.795,45.757 C502.176,47.466 501.721,49.053 501.428,50.518 L497.521,70.000 L489.758,70.000 L495.031,43.486 C495.161,42.868 495.300,42.054 495.446,41.045 C495.593,40.036 495.771,38.677 495.983,36.968 C496.195,35.259 496.447,33.110 496.740,30.522 C497.033,27.935 497.375,24.753 497.766,20.977 L505.041,20.977 L503.820,32.305 C504.731,30.645 505.676,29.082 506.652,27.617 C507.629,26.152 508.646,24.858 509.704,23.735 C510.762,22.612 511.893,21.726 513.098,21.074 C514.302,20.423 515.588,20.098 516.955,20.098 C518.615,20.098 519.990,20.423 521.081,21.074 C522.171,21.726 522.969,22.605 523.474,23.711 C523.978,24.818 524.198,26.112 524.133,27.593 C524.067,29.074 523.709,30.645 523.059,32.305 C523.970,30.645 524.906,29.082 525.866,27.617 C526.826,26.152 527.835,24.858 528.894,23.735 C529.951,22.612 531.082,21.726 532.287,21.074 C533.491,20.423 534.777,20.098 536.145,20.098 C539.399,20.098 541.589,21.327 542.712,23.784 C543.835,26.242 543.875,30.075 542.834,35.283 ZM424.475,19.390 C423.498,21.164 422.269,22.856 420.788,24.468 C419.306,26.079 417.549,27.504 415.515,28.740 C413.480,29.978 411.169,30.962 408.581,31.694 C405.993,32.427 403.120,32.793 399.963,32.793 L399.963,26.104 C401.623,26.169 403.364,26.006 405.187,25.615 C407.010,25.225 408.670,24.607 410.168,23.760 C411.665,22.914 412.902,21.848 413.879,20.562 C414.855,19.276 415.344,17.754 415.344,15.996 C415.344,15.150 415.205,14.426 414.929,13.823 C414.652,13.221 414.359,12.644 414.050,12.090 C413.740,11.537 413.447,10.935 413.171,10.283 C412.894,9.632 412.756,8.835 412.756,7.891 C412.756,6.687 412.976,5.612 413.415,4.668 C413.854,3.724 414.416,2.943 415.100,2.324 C415.783,1.706 416.556,1.234 417.419,0.908 C418.281,0.583 419.136,0.420 419.982,0.420 C422.131,0.420 423.896,1.128 425.280,2.544 C426.663,3.960 427.355,6.084 427.355,8.916 C427.355,10.544 427.119,12.253 426.647,14.043 C426.175,15.834 425.451,17.616 424.475,19.390 ZM368.566,13.506 L358.801,62.578 L373.498,62.578 L371.984,70.000 L333.801,70.000 L335.266,62.578 L349.963,62.578 L359.777,13.506 L345.080,13.506 L346.594,6.182 L384.777,6.182 L383.264,13.506 L368.566,13.506 ZM242.834,51.299 L251.428,1.006 L261.730,1.006 L250.305,51.299 L242.834,51.299 ZM246.594,58.501 C247.342,58.843 247.993,59.299 248.547,59.868 C249.100,60.438 249.531,61.106 249.841,61.870 C250.150,62.635 250.305,63.441 250.305,64.287 C250.305,65.232 250.125,66.102 249.768,66.899 C249.409,67.697 248.929,68.389 248.327,68.975 C247.724,69.561 247.025,70.024 246.228,70.366 C245.430,70.708 244.592,70.879 243.713,70.879 C242.768,70.879 241.914,70.708 241.149,70.366 C240.384,70.024 239.725,69.577 239.172,69.023 C238.618,68.470 238.187,67.820 237.878,67.070 C237.568,66.322 237.414,65.525 237.414,64.678 C237.414,63.734 237.593,62.855 237.951,62.041 C238.309,61.228 238.797,60.520 239.416,59.917 C240.034,59.315 240.750,58.843 241.564,58.501 C242.378,58.159 243.225,57.988 244.104,57.988 C245.014,57.988 245.845,58.159 246.594,58.501 ZM211.413,49.932 C211.267,50.941 211.096,52.300 210.900,54.009 C210.705,55.718 210.461,57.866 210.168,60.454 C209.875,63.042 209.533,66.224 209.143,70.000 L201.135,70.000 L202.355,58.721 C200.109,62.627 197.383,65.630 194.177,67.729 C190.970,69.829 187.495,70.879 183.752,70.879 C181.408,70.879 179.365,70.488 177.624,69.707 C175.882,68.926 174.442,67.811 173.303,66.362 C172.163,64.914 171.317,63.181 170.764,61.162 C170.210,59.144 169.934,56.898 169.934,54.424 C169.934,49.736 170.544,45.334 171.765,41.216 C172.985,37.098 174.784,33.493 177.160,30.400 C179.536,27.308 182.474,24.867 185.974,23.076 C189.472,21.286 193.501,20.391 198.059,20.391 C200.174,20.391 202.192,20.529 204.113,20.806 C206.034,21.083 207.873,21.482 209.631,22.002 L217.346,20.098 L211.828,47.490 C211.698,48.109 211.560,48.923 211.413,49.932 ZM202.233,27.886 C200.622,27.512 199.133,27.324 197.766,27.324 C195.096,27.324 192.768,27.780 190.783,28.691 C188.797,29.603 187.088,30.791 185.656,32.256 C184.223,33.721 183.052,35.389 182.141,37.261 C181.229,39.133 180.505,41.045 179.968,42.998 C179.431,44.951 179.056,46.855 178.845,48.711 C178.633,50.566 178.527,52.195 178.527,53.594 C178.527,56.687 179.064,59.111 180.139,60.869 C181.213,62.627 182.954,63.506 185.363,63.506 C186.763,63.506 188.163,63.181 189.562,62.529 C190.962,61.879 192.329,60.984 193.664,59.844 C194.998,58.705 196.260,57.362 197.448,55.815 C198.636,54.270 199.726,52.610 200.720,50.835 C201.712,49.061 202.567,47.206 203.283,45.269 C203.999,43.332 204.553,41.404 204.943,39.482 L206.945,29.424 C205.415,28.773 203.845,28.260 202.233,27.886 ZM157.629,39.067 C156.391,42.112 154.805,45.342 152.868,48.760 C150.931,52.178 148.498,55.986 145.568,60.186 C142.704,64.287 140.083,67.876 137.707,70.952 C135.330,74.028 133.125,76.689 131.091,78.936 C129.056,81.182 127.152,83.029 125.378,84.478 C123.603,85.926 121.887,87.090 120.227,87.969 C118.566,88.848 116.922,89.458 115.295,89.800 C113.667,90.142 111.991,90.313 110.266,90.313 C109.420,90.313 108.622,90.288 107.873,90.239 C107.125,90.190 106.262,90.117 105.285,90.020 L105.285,82.305 C106.164,82.467 107.076,82.589 108.020,82.671 C108.964,82.752 109.908,82.793 110.852,82.793 C112.414,82.793 113.887,82.565 115.271,82.109 C116.654,81.653 118.037,80.913 119.421,79.888 C120.804,78.862 122.220,77.536 123.669,75.908 C125.117,74.280 126.688,72.311 128.381,70.000 L118.469,20.977 L127.648,20.977 L134.045,53.398 L135.266,61.797 C137.641,58.379 139.701,55.246 141.442,52.397 C143.183,49.549 144.681,46.921 145.935,44.512 C147.187,42.103 148.213,39.865 149.011,37.798 C149.808,35.731 150.459,33.762 150.964,31.890 C151.468,30.018 151.850,28.195 152.111,26.421 C152.371,24.647 152.583,22.832 152.746,20.977 L162.072,20.977 C161.682,24.167 161.152,27.219 160.485,30.132 C159.818,33.046 158.866,36.024 157.629,39.067 ZM87.072,70.879 C84.761,70.879 82.824,70.553 81.262,69.902 C79.699,69.252 78.503,68.218 77.673,66.802 C76.843,65.386 76.379,63.571 76.281,61.357 C76.184,59.144 76.444,56.459 77.062,53.301 L80.383,36.895 C80.773,35.039 80.960,33.485 80.944,32.231 C80.928,30.979 80.757,29.978 80.432,29.229 C80.106,28.480 79.626,27.951 78.991,27.642 C78.356,27.333 77.616,27.178 76.770,27.178 C74.555,27.178 72.375,27.610 70.227,28.472 C68.078,29.335 65.897,30.384 63.684,31.621 L63.684,24.102 C65.930,22.865 68.298,21.888 70.788,21.172 C73.278,20.456 75.939,20.098 78.771,20.098 C81.082,20.098 83.020,20.423 84.582,21.074 C86.145,21.726 87.341,22.759 88.171,24.175 C89.001,25.591 89.465,27.406 89.562,29.619 C89.660,31.833 89.399,34.519 88.781,37.676 L85.461,54.082 C85.102,55.970 84.924,57.533 84.924,58.770 C84.924,60.007 85.095,60.1000 85.437,61.748 C85.778,62.497 86.258,63.026 86.877,63.335 C87.495,63.645 88.227,63.799 89.074,63.799 C91.288,63.799 93.469,63.368 95.617,62.505 C97.766,61.643 99.946,60.609 102.160,59.404 L102.160,66.924 C99.914,68.161 97.546,69.129 95.056,69.829 C92.565,70.529 89.904,70.879 87.072,70.879 ZM93.347,11.797 C92.712,12.416 91.971,12.904 91.125,13.262 C90.278,13.620 89.367,13.799 88.391,13.799 C87.446,13.799 86.576,13.628 85.778,13.286 C84.980,12.944 84.305,12.489 83.752,11.919 C83.198,11.350 82.767,10.674 82.458,9.893 C82.148,9.111 81.994,8.281 81.994,7.402 C81.994,6.394 82.173,5.466 82.531,4.619 C82.889,3.773 83.386,3.041 84.021,2.422 C84.655,1.804 85.395,1.316 86.242,0.957 C87.088,0.599 87.1000,0.420 88.977,0.420 C89.920,0.420 90.783,0.591 91.564,0.933 C92.346,1.274 93.021,1.731 93.591,2.300 C94.160,2.870 94.599,3.545 94.909,4.326 C95.218,5.107 95.373,5.938 95.373,6.816 C95.373,7.826 95.194,8.754 94.836,9.600 C94.477,10.446 93.981,11.179 93.347,11.797 ZM36.389,70.000 L42.297,40.703 L15.490,40.703 L9.582,70.000 L0.891,70.000 L13.684,6.182 L22.424,6.182 L17.004,33.184 L43.811,33.184 L49.182,6.182 L57.922,6.182 L45.080,70.000 L36.389,70.000 Z" />
    </svg>

    <svg xmlns="http://www.w3.org/2000/svg" xmlns:xlink="http://www.w3.org/1999/xlink" height="60" x="-70" y="85"
        viewBox="0 0 273 92">
        <path fill-rule="evenodd" fill="rgb(0, 0, 0)"
            d="M271.390,38.977 C270.723,39.844 269.790,40.694 268.590,41.527 C267.390,42.361 265.890,42.611 264.090,42.277 C263.690,42.144 263.273,41.644 262.840,40.777 C262.406,39.911 262.156,39.277 262.090,38.877 C262.090,38.677 261.806,38.861 261.240,39.427 C260.673,39.994 260.006,40.677 259.240,41.477 C258.473,42.277 257.756,43.011 257.090,43.677 C255.956,45.077 254.756,46.977 253.490,49.377 C252.223,51.777 250.723,54.677 248.990,58.077 C248.190,59.744 247.523,61.327 246.990,62.827 C246.456,64.327 245.890,65.177 245.290,65.377 C245.090,65.444 244.673,65.411 244.040,65.277 C243.406,65.144 242.773,64.977 242.140,64.777 C241.506,64.577 241.123,64.411 240.990,64.277 C240.723,64.011 240.356,63.527 239.890,62.827 C239.423,62.127 239.173,61.177 239.140,59.977 C239.106,58.777 239.656,57.344 240.790,55.677 C241.123,55.011 241.523,54.011 241.990,52.677 C242.456,51.344 242.940,49.927 243.440,48.427 C243.940,46.927 244.406,45.577 244.840,44.377 C245.273,43.177 245.590,42.344 245.790,41.877 C245.923,40.744 245.873,39.927 245.640,39.427 C245.406,38.927 244.823,38.644 243.890,38.577 C243.223,38.577 242.706,38.344 242.340,37.877 C241.973,37.411 241.790,36.577 241.790,35.377 C241.923,34.444 242.173,33.627 242.540,32.927 C242.906,32.227 243.423,31.644 244.090,31.177 C244.756,30.844 245.606,30.611 246.640,30.477 C247.673,30.344 248.690,30.311 249.690,30.377 C250.690,30.444 251.390,30.677 251.790,31.077 C252.256,31.344 252.640,31.927 252.940,32.827 C253.240,33.727 253.490,34.644 253.690,35.577 C253.890,36.511 254.023,37.211 254.090,37.677 C254.756,37.144 255.506,36.394 256.340,35.427 C257.173,34.461 258.023,33.544 258.890,32.677 C259.956,31.944 261.223,31.194 262.690,30.427 C264.156,29.661 265.223,29.277 265.890,29.277 C266.623,29.277 267.523,29.627 268.590,30.327 C269.656,31.027 270.323,31.644 270.590,32.177 C271.256,33.311 271.740,34.494 272.040,35.727 C272.340,36.961 272.123,38.044 271.390,38.977 ZM230.790,31.677 C229.190,31.944 227.823,32.094 226.690,32.127 C225.556,32.161 224.723,32.177 224.190,32.177 C223.323,32.244 222.756,32.277 222.490,32.277 C222.223,32.277 221.823,32.344 221.290,32.477 C220.756,32.611 220.373,32.827 220.140,33.127 C219.906,33.427 219.656,33.844 219.390,34.377 C219.123,34.644 218.723,35.344 218.190,36.477 C217.656,37.611 216.990,38.844 216.190,40.177 C215.256,42.977 214.473,45.661 213.840,48.227 C213.206,50.794 212.656,53.344 212.190,55.877 C211.990,57.144 212.040,58.061 212.340,58.627 C212.640,59.194 213.490,59.544 214.890,59.677 C215.623,59.744 216.690,59.727 218.090,59.627 C219.490,59.527 220.656,59.344 221.590,59.077 C222.323,58.744 223.090,58.394 223.890,58.027 C224.690,57.661 225.423,57.277 226.090,56.877 C226.690,56.544 227.590,56.011 228.790,55.277 C229.123,54.744 229.606,54.827 230.240,55.527 C230.873,56.227 231.323,56.977 231.590,57.777 C231.590,58.577 231.423,59.527 231.090,60.627 C230.756,61.727 229.523,62.877 227.390,64.077 C224.390,65.944 221.390,67.077 218.390,67.477 C215.390,67.877 213.023,67.910 211.290,67.577 C210.556,67.444 209.756,66.994 208.890,66.227 C208.023,65.461 207.240,64.594 206.540,63.627 C205.840,62.661 205.390,61.844 205.190,61.177 C205.190,61.044 205.023,60.777 204.690,60.377 C204.423,60.177 204.273,59.294 204.240,57.727 C204.206,56.161 204.290,54.411 204.490,52.477 C204.690,50.544 204.923,49.011 205.190,47.877 C205.523,46.811 206.023,45.361 206.690,43.527 C207.356,41.694 207.923,40.044 208.390,38.577 L211.090,32.777 L207.090,31.677 C206.623,31.544 206.240,31.277 205.940,30.877 C205.640,30.477 205.490,30.144 205.490,29.877 C205.490,29.344 205.790,28.577 206.390,27.577 C206.990,26.577 207.423,26.077 207.690,26.077 C208.023,26.144 208.640,26.177 209.540,26.177 C210.440,26.177 211.323,26.144 212.190,26.077 C213.056,26.011 213.590,25.944 213.790,25.877 C214.056,25.744 214.323,25.561 214.590,25.327 C214.856,25.094 215.056,24.744 215.190,24.277 C215.523,23.544 215.823,22.977 216.090,22.577 C216.356,22.177 216.723,21.577 217.190,20.777 C217.656,19.911 218.040,19.177 218.340,18.577 C218.640,17.977 219.123,17.144 219.790,16.077 C220.123,15.611 220.490,15.044 220.890,14.377 C221.290,13.711 221.790,13.144 222.390,12.677 C222.990,12.144 223.973,11.761 225.340,11.527 C226.706,11.294 227.890,11.611 228.890,12.477 C229.423,13.144 229.723,13.777 229.790,14.377 C229.856,14.977 229.590,15.744 228.990,16.677 C228.456,17.811 227.840,18.827 227.140,19.727 C226.440,20.627 225.790,21.644 225.190,22.777 C224.123,24.244 223.923,25.077 224.590,25.277 C225.256,25.477 227.123,25.344 230.190,24.877 C232.123,24.544 233.523,24.744 234.390,25.477 C235.256,26.211 235.756,27.144 235.890,28.277 C236.090,29.877 235.923,30.844 235.390,31.177 C234.856,31.511 233.323,31.677 230.790,31.677 ZM198.240,46.727 C197.406,48.294 196.440,49.727 195.340,51.027 C194.240,52.327 193.190,53.311 192.190,53.977 C191.523,54.244 190.656,54.677 189.590,55.277 C189.523,55.611 188.840,56.177 187.540,56.977 C186.240,57.777 184.740,58.527 183.040,59.227 C181.340,59.927 179.823,60.377 178.490,60.577 C178.023,60.644 177.356,60.711 176.490,60.777 C175.623,60.844 174.956,60.744 174.490,60.477 C173.756,60.344 173.256,60.277 172.990,60.277 C172.723,60.277 172.590,60.411 172.590,60.677 C172.523,60.811 172.056,61.877 171.190,63.877 C170.323,65.877 169.423,68.643 168.490,72.177 C167.223,76.043 166.190,79.227 165.390,81.727 C164.590,84.227 163.973,86.177 163.540,87.577 C163.106,88.977 162.790,89.993 162.590,90.627 C162.390,91.260 162.223,91.643 162.090,91.777 C161.623,91.577 160.906,91.077 159.940,90.277 C158.973,89.477 158.106,88.627 157.340,87.727 C156.573,86.827 156.190,86.177 156.190,85.777 C156.190,85.377 156.357,84.327 156.690,82.627 C157.023,80.927 157.473,78.860 158.040,76.427 C158.606,73.993 159.240,71.527 159.940,69.027 C160.640,66.527 161.356,64.311 162.090,62.377 C162.223,62.044 162.673,60.927 163.440,59.027 C164.206,57.127 164.956,54.811 165.690,52.077 C166.223,50.344 166.923,48.377 167.790,46.177 C168.656,43.977 169.556,41.761 170.490,39.527 C171.423,37.294 172.190,35.311 172.790,33.577 C173.390,31.844 174.056,30.094 174.790,28.327 C175.523,26.561 175.923,25.544 175.990,25.277 C176.123,24.877 176.506,24.527 177.140,24.227 C177.773,23.927 178.423,23.661 179.090,23.427 C179.756,23.194 180.190,23.044 180.390,22.977 C181.590,22.644 182.623,23.144 183.490,24.477 C183.823,25.077 183.906,25.894 183.740,26.927 C183.573,27.961 183.223,29.077 182.690,30.277 L181.990,32.277 L185.590,31.477 C186.190,31.477 187.023,31.511 188.090,31.577 C189.156,31.644 190.206,31.711 191.240,31.777 C192.273,31.844 192.990,31.944 193.390,32.077 C194.990,32.144 196.106,32.444 196.740,32.977 C197.373,33.511 197.923,34.211 198.390,35.077 C198.723,35.411 199.123,35.861 199.590,36.427 C200.056,36.994 200.323,37.544 200.390,38.077 C200.656,39.211 200.573,40.544 200.140,42.077 C199.706,43.611 199.073,45.161 198.240,46.727 ZM190.490,40.777 C189.756,39.711 188.706,39.211 187.340,39.277 C185.973,39.344 183.823,40.177 180.890,41.777 C179.756,42.177 178.990,42.527 178.590,42.827 C178.190,43.127 177.873,43.577 177.640,44.177 C177.406,44.777 176.990,45.744 176.390,47.077 C175.790,48.544 175.390,49.644 175.190,50.377 C174.990,51.111 174.923,51.611 174.990,51.877 C175.190,52.277 175.890,52.394 177.090,52.227 C178.290,52.061 179.656,51.677 181.190,51.077 C182.723,50.477 184.106,49.761 185.340,48.927 C186.573,48.094 187.290,47.211 187.490,46.277 C188.956,44.611 189.990,43.394 190.590,42.627 C191.190,41.861 191.156,41.244 190.490,40.777 ZM159.990,61.477 C159.123,62.277 158.156,62.927 157.090,63.427 C156.023,63.927 154.990,64.177 153.990,64.177 C153.256,64.177 152.523,63.894 151.790,63.327 C151.056,62.761 150.390,61.977 149.790,60.977 C149.190,59.977 148.690,58.877 148.290,57.677 L147.690,55.377 L144.090,58.677 C143.223,59.611 142.373,60.461 141.540,61.227 C140.706,61.994 140.190,62.544 139.990,62.877 C139.656,63.477 139.006,64.011 138.040,64.477 C137.073,64.944 135.823,65.477 134.290,66.077 C133.756,66.211 133.056,66.261 132.190,66.227 C131.323,66.194 130.573,66.094 129.940,65.927 C129.306,65.761 128.990,65.577 128.990,65.377 C128.990,65.044 128.823,64.877 128.490,64.877 C127.023,63.744 125.990,63.044 125.390,62.777 C124.790,61.844 124.406,60.761 124.240,59.527 C124.073,58.294 124.456,56.111 125.390,52.977 C125.456,50.844 126.056,48.594 127.190,46.227 C128.323,43.861 129.756,41.544 131.490,39.277 C133.223,37.011 135.023,34.994 136.890,33.227 C138.756,31.461 140.423,30.144 141.890,29.277 C142.823,28.344 144.073,27.844 145.640,27.777 C147.206,27.711 148.590,28.011 149.790,28.677 C150.456,29.011 151.190,29.677 151.990,30.677 C152.790,31.677 153.556,32.727 154.290,33.827 C155.023,34.927 155.590,35.911 155.990,36.777 C156.190,37.511 156.373,38.161 156.540,38.727 C156.706,39.294 156.823,39.977 156.890,40.777 C156.956,41.577 156.890,42.777 156.690,44.377 C156.356,45.577 156.073,46.794 155.840,48.027 C155.606,49.261 155.490,50.511 155.490,51.777 C155.356,53.044 155.506,53.944 155.940,54.477 C156.373,55.011 157.023,55.044 157.890,54.577 C158.690,54.177 159.523,54.127 160.390,54.427 C161.256,54.727 161.873,55.261 162.240,56.027 C162.606,56.794 162.490,57.777 161.890,58.977 C161.490,59.844 160.856,60.677 159.990,61.477 ZM147.490,38.127 C147.023,37.294 146.556,36.844 146.090,36.777 C145.156,36.777 144.040,37.344 142.740,38.477 C141.440,39.611 140.023,41.244 138.490,43.377 C138.223,43.711 137.890,44.244 137.490,44.977 C137.090,45.711 136.706,46.394 136.340,47.027 C135.973,47.661 135.723,48.077 135.590,48.277 C135.390,48.544 135.106,49.161 134.740,50.127 C134.373,51.094 134.056,52.061 133.790,53.027 C133.523,53.994 133.390,54.677 133.390,55.077 C133.390,55.477 133.440,55.911 133.540,56.377 C133.640,56.844 133.956,57.144 134.490,57.277 C135.023,57.411 135.856,57.144 136.990,56.477 C138.123,55.811 139.106,55.011 139.940,54.077 C140.773,53.144 141.590,52.094 142.390,50.927 C143.190,49.761 144.056,48.511 144.990,47.177 C146.123,45.644 146.940,44.411 147.440,43.477 C147.940,42.544 148.323,41.544 148.590,40.477 C148.323,39.744 147.956,38.961 147.490,38.127 ZM117.090,38.677 C116.556,39.011 115.840,39.511 114.940,40.177 C114.040,40.844 113.256,41.477 112.590,42.077 C112.123,42.344 111.440,42.794 110.540,43.427 C109.640,44.061 108.856,44.677 108.190,45.277 C107.656,45.611 107.040,46.194 106.340,47.027 C106.246,47.140 106.145,47.239 106.048,47.343 C106.507,48.125 106.890,48.679 107.190,48.977 C108.723,51.244 109.923,53.077 110.790,54.477 C111.656,55.877 112.406,57.011 113.040,57.877 C113.673,58.744 114.390,59.511 115.190,60.177 C115.990,60.844 117.023,61.544 118.290,62.277 C118.490,62.411 118.690,62.727 118.890,63.227 C119.090,63.727 119.156,64.244 119.090,64.777 C118.956,65.577 118.473,66.227 117.640,66.727 C116.806,67.227 115.423,67.543 113.490,67.677 C112.423,67.543 111.623,67.327 111.090,67.027 C110.556,66.727 109.556,66.044 108.090,64.977 C107.290,64.177 106.290,62.944 105.090,61.277 C103.890,59.611 102.690,57.827 101.490,55.927 C100.495,54.350 99.596,52.981 98.784,51.794 C98.519,52.489 98.266,53.159 98.040,53.777 C97.673,54.777 97.490,55.411 97.490,55.677 C97.023,57.144 96.656,58.594 96.390,60.027 C96.123,61.461 95.690,62.711 95.090,63.777 C95.090,65.377 94.656,66.377 93.790,66.777 C92.923,67.177 91.856,67.177 90.590,66.777 C89.590,66.444 88.706,65.911 87.940,65.177 C87.173,64.444 86.856,63.244 86.990,61.577 C87.123,60.577 87.323,59.527 87.590,58.427 C87.856,57.327 88.190,56.244 88.590,55.177 C88.790,53.977 89.040,52.777 89.340,51.577 C89.640,50.377 90.156,49.244 90.890,48.177 C91.756,45.711 92.656,43.261 93.590,40.827 C94.523,38.394 95.323,35.844 95.990,33.177 C96.990,30.777 97.906,28.644 98.740,26.777 C99.573,24.911 100.590,22.511 101.790,19.577 C102.456,18.044 103.040,16.327 103.540,14.427 C104.040,12.527 104.823,10.844 105.890,9.377 C106.356,8.777 106.706,8.261 106.940,7.827 C107.173,7.394 107.423,6.977 107.690,6.577 C108.156,5.644 108.873,5.211 109.840,5.277 C110.806,5.344 111.456,5.611 111.790,6.077 C112.923,6.544 113.723,7.394 114.190,8.627 C114.656,9.861 114.823,10.744 114.690,11.277 C114.690,12.011 114.423,12.811 113.890,13.677 C113.623,13.944 113.356,14.327 113.090,14.827 C112.823,15.327 112.423,15.977 111.890,16.777 C111.623,17.644 111.356,18.511 111.090,19.377 C110.823,20.244 110.523,21.044 110.190,21.777 C109.856,22.511 109.490,23.244 109.090,23.977 C108.690,24.711 108.423,25.311 108.290,25.777 C107.690,27.311 107.040,28.794 106.340,30.227 C105.640,31.661 105.023,33.177 104.490,34.777 C103.956,36.311 103.390,37.927 102.790,39.627 C102.753,39.734 102.700,39.833 102.661,39.940 C102.728,39.882 102.767,39.838 102.840,39.777 C103.406,39.311 103.923,38.877 104.390,38.477 C105.456,37.811 106.640,36.994 107.940,36.027 C109.240,35.061 110.506,34.077 111.740,33.077 C112.973,32.077 114.006,31.211 114.840,30.477 C115.673,29.744 116.190,29.277 116.390,29.077 C116.590,28.811 117.006,28.644 117.640,28.577 C118.273,28.511 118.890,28.611 119.490,28.877 C120.290,29.077 120.940,29.511 121.440,30.177 C121.940,30.844 122.190,31.777 122.190,32.977 C122.390,33.711 121.973,34.594 120.940,35.627 C119.906,36.661 118.623,37.677 117.090,38.677 ZM82.190,64.277 C79.990,64.544 77.890,64.311 75.890,63.577 C73.890,62.844 72.090,60.944 70.490,57.877 C70.223,57.477 69.873,56.727 69.440,55.627 C69.006,54.527 68.756,53.811 68.690,53.477 C68.423,53.811 68.073,54.227 67.640,54.727 C67.206,55.227 66.790,55.677 66.390,56.077 C61.656,60.877 57.606,63.994 54.240,65.427 C50.873,66.861 48.056,66.844 45.790,65.377 C45.523,64.844 44.940,64.311 44.040,63.777 C43.140,63.244 42.690,62.844 42.690,62.577 C42.690,62.311 42.540,61.894 42.240,61.327 C41.940,60.761 41.656,60.344 41.390,60.077 C41.056,59.677 41.156,58.694 41.690,57.127 C42.223,55.561 43.023,53.644 44.090,51.377 C45.156,49.111 46.323,46.811 47.590,44.477 C48.123,43.944 48.656,43.244 49.190,42.377 C49.723,41.511 50.123,40.944 50.390,40.677 C50.390,40.411 50.490,40.161 50.690,39.927 C50.890,39.694 51.123,39.577 51.390,39.577 L52.190,37.977 C52.323,37.711 52.740,37.177 53.440,36.377 C54.140,35.577 54.990,34.694 55.990,33.727 C56.990,32.761 58.006,31.844 59.040,30.977 C60.073,30.111 60.923,29.477 61.590,29.077 C62.990,28.144 64.440,27.711 65.940,27.777 C67.440,27.844 68.723,28.311 69.790,29.177 C69.990,29.377 70.440,29.777 71.140,30.377 C71.840,30.977 72.640,31.644 73.540,32.377 C74.440,33.111 75.223,33.777 75.890,34.377 L79.590,37.677 L77.890,42.677 C77.023,45.344 76.790,47.677 77.190,49.677 C77.590,51.677 78.223,53.411 79.090,54.877 C79.423,55.611 79.873,56.177 80.440,56.577 C81.006,56.977 81.756,57.244 82.690,57.377 C83.223,57.444 83.723,57.644 84.190,57.977 C84.656,58.311 84.890,58.844 84.890,59.577 C84.890,61.177 84.606,62.327 84.040,63.027 C83.473,63.727 82.856,64.144 82.190,64.277 ZM67.790,37.177 C67.256,36.711 66.723,36.477 66.190,36.477 C65.323,36.477 64.290,37.027 63.090,38.127 C61.890,39.227 60.540,40.827 59.040,42.927 C57.540,45.027 55.856,47.644 53.990,50.777 C53.123,52.244 52.223,54.344 51.290,57.077 C51.756,57.144 52.490,56.894 53.490,56.327 C54.490,55.761 55.823,54.811 57.490,53.477 C59.756,51.544 61.623,49.944 63.090,48.677 C64.556,47.411 65.990,45.777 67.390,43.777 L69.590,40.177 C68.923,38.644 68.323,37.644 67.790,37.177 ZM37.090,47.977 C36.756,48.244 36.423,48.594 36.090,49.027 C35.756,49.461 35.590,49.811 35.590,50.077 C35.523,50.544 34.923,51.494 33.790,52.927 C32.656,54.361 31.523,55.711 30.390,56.977 C29.190,58.244 27.723,59.494 25.990,60.727 C24.256,61.961 22.540,63.061 20.840,64.027 C19.140,64.994 17.690,65.677 16.490,66.077 C15.956,66.144 15.190,66.261 14.190,66.427 C13.190,66.594 12.423,66.744 11.890,66.877 C10.556,66.744 9.506,66.394 8.740,65.827 C7.973,65.261 7.390,64.544 6.990,63.677 C6.456,63.077 6.140,62.611 6.040,62.277 C5.940,61.944 5.923,61.644 5.990,61.377 C6.323,61.377 6.623,61.361 6.890,61.327 C7.156,61.294 7.323,61.177 7.390,60.977 C7.390,60.777 7.506,60.644 7.740,60.577 C7.973,60.511 8.223,60.511 8.490,60.577 C9.756,60.644 11.306,60.211 13.140,59.277 C14.973,58.344 16.990,57.027 19.190,55.327 C21.390,53.627 23.590,51.777 25.790,49.777 C27.523,47.511 28.740,45.844 29.440,44.777 C30.140,43.711 30.506,42.894 30.540,42.327 C30.573,41.761 30.423,41.177 30.090,40.577 C29.823,40.044 29.190,39.777 28.190,39.777 C27.190,39.777 25.656,40.444 23.590,41.777 C20.723,43.577 18.423,45.244 16.690,46.777 C14.956,48.311 13.356,50.044 11.890,51.977 C11.356,52.644 10.773,53.361 10.140,54.127 C9.506,54.894 8.756,55.811 7.890,56.877 C7.890,57.144 7.506,57.477 6.740,57.877 C5.973,58.277 5.323,58.477 4.790,58.477 C4.523,58.344 4.173,58.094 3.740,57.727 C3.306,57.361 3.023,56.877 2.890,56.277 C2.290,55.811 1.790,55.394 1.390,55.027 C0.990,54.661 0.790,54.044 0.790,53.177 C0.790,52.644 0.873,51.977 1.040,51.177 C1.206,50.377 1.456,49.344 1.790,48.077 C2.190,46.344 2.623,44.527 3.090,42.627 C3.556,40.727 4.006,39.094 4.440,37.727 C4.873,36.361 5.190,35.611 5.390,35.477 C5.923,34.277 6.190,33.277 6.190,32.477 C6.323,31.677 6.540,30.977 6.840,30.377 C7.140,29.777 7.290,29.344 7.290,29.077 C7.556,28.877 7.956,28.077 8.490,26.677 C9.023,25.277 9.690,23.444 10.490,21.177 C10.490,20.977 10.723,20.327 11.190,19.227 C11.656,18.127 12.223,16.827 12.890,15.327 C13.556,13.827 14.240,12.261 14.940,10.627 C15.640,8.994 16.223,7.544 16.690,6.277 C17.490,5.144 18.173,3.994 18.740,2.827 C19.306,1.661 19.823,0.977 20.290,0.777 C20.623,0.711 21.206,0.844 22.040,1.177 C22.873,1.511 23.723,1.944 24.590,2.477 C25.456,3.011 26.056,3.544 26.390,4.077 C26.590,4.411 26.706,4.744 26.740,5.077 C26.773,5.411 26.623,5.961 26.290,6.727 C25.956,7.494 25.390,8.727 24.590,10.427 C23.790,12.127 22.656,14.511 21.190,17.577 C19.323,21.577 17.873,24.911 16.840,27.577 C15.806,30.244 14.973,32.544 14.340,34.477 C13.706,36.411 13.056,38.244 12.390,39.977 L11.890,42.177 L14.490,39.277 C15.156,38.611 15.856,37.977 16.590,37.377 C17.323,36.777 18.123,36.177 18.990,35.577 C19.523,35.177 20.240,34.761 21.140,34.327 C22.040,33.894 22.923,33.511 23.790,33.177 C24.656,32.844 25.290,32.644 25.690,32.577 C25.890,32.511 26.573,32.361 27.740,32.127 C28.906,31.894 30.056,31.777 31.190,31.777 C32.656,31.777 33.940,32.294 35.040,33.327 C36.140,34.361 37.123,35.611 37.990,37.077 C38.723,38.477 38.990,40.261 38.790,42.427 C38.590,44.594 38.023,46.444 37.090,47.977 Z" />
    </svg>
</svg>